# xmcd
#
# Track frame offsets: 
#        150
#        6987
#        16012
#        24400
#        32687
#        42787
#        52875
#        62850
#        64387
#        66687
#        67750
#        69480
#        70350
#        72125
#        81680
#        82962
#        91975
#        101357
#        111775
#        113080
#        115425
#        117830
#        120615
#        124207
#        128487
#
# Disc length: 1744 seconds
#
# Revision: 0
# Processed by: cddbd v1.5.2PL0 Copyright (c) Steve Scherf et al.
# Submitted via: ExactAudioCopy v0.95b3
#
DISCID=5c06ce19
DTITLE=The Beatles  - Way Beyond Compare - Episode 14 - March 5 1963  
DTITLE=FLAC
DYEAR=1900
DGENRE=
TTITLE0=From Me To You - take 1 (stereo)
TTITLE1=From Me To You - take 2 (stereo)
TTITLE2=From Me To You - take 3 (stereo)
TTITLE3=From Me To You - take 4 (stereo)
TTITLE4=From Me To You - take 5 (stereo)
TTITLE5=From Me To You - takes 6 and 7 (stereo)
TTITLE6=From  Me To You - take 8 announcement and master edit (stereo)
TTITLE7=From  Me To You - take 8 remnants (stereo)
TTITLE8=From  Me To You - take 9 remnant (stereo)
TTITLE9=From  Me To You - take 10 remnant (stereo)
TTITLE10=From  Me To You - take 11 (stereo)
TTITLE11=From  Me To You - take 12 remnant (stereo)
TTITLE12=From  Me To You - take 13 (stereo)
TTITLE13=Thank You Girl - take 1 (stereo)
TTITLE14=Thank You Girl - takes 2 and 3 (stereo)
TTITLE15=Thank You Girl - take 4 (stereo)
TTITLE16=Thank You Girl - take 5 (stereo)
TTITLE17=Thank You Girl - take 6 (stereo)
TTITLE18=Thank You Girl - take 7 (stereo)
TTITLE19=Thank You Girl - take 8 (stereo)
TTITLE20=Thank You Girl - take 9 (stereo)
TTITLE21=Thank You Girl - take 10 (stereo)
TTITLE22=Thank You Girl - take 11 (stereo)
TTITLE23=Thank You Girl - take 12 (stereo)
TTITLE24=Thank You Girl - take 13 (stereo)
EXTD=
EXTT0=
EXTT1=
EXTT2=
EXTT3=
EXTT4=
EXTT5=
EXTT6=
EXTT7=
EXTT8=
EXTT9=
EXTT10=
EXTT11=
EXTT12=
EXTT13=
EXTT14=
EXTT15=
EXTT16=
EXTT17=
EXTT18=
EXTT19=
EXTT20=
EXTT21=
EXTT22=
EXTT23=
EXTT24=
PLAYORDER=
